<?xml version="1.0" standalone="no"?>
<!DOCTYPE svg PUBLIC "-//W3C//DTD SVG 20010904//EN"
 "http://www.w3.org/TR/2001/REC-SVG-20010904/DTD/svg10.dtd">
<svg version="1.0" xmlns="http://www.w3.org/2000/svg"
 width="435.000000pt" height="654.000000pt" viewBox="0 0 435.000000 654.000000"
 preserveAspectRatio="xMidYMid meet">
<metadata>
Created by potrace 1.16, written by Peter Selinger 2001-2019
</metadata>
<g transform="translate(0.000000,654.000000) scale(0.100000,-0.100000)"
fill="#000000" stroke="none">
<path d="M2019 6395 c-433 -82 -783 -379 -923 -782 -38 -112 -66 -271 -66
-380 0 -145 46 -324 114 -446 41 -72 42 -79 20 -101 -43 -44 -96 1 -164 139
-86 175 -121 389 -100 606 11 119 45 273 75 346 8 19 15 37 15 39 0 9 -246 3
-313 -7 -241 -35 -415 -156 -514 -355 -62 -124 -58 49 -58 -2434 l0 -2275 28
-80 c68 -199 233 -348 432 -390 60 -13 294 -15 1608 -15 1699 0 1619 -3 1756
63 46 22 90 56 146 112 92 91 136 165 165 281 20 76 20 119 20 2295 0 2429 3
2296 -59 2434 -107 236 -350 375 -656 375 l-93 0 29 -75 c63 -162 74 -230 73
-455 0 -194 -2 -210 -28 -295 -31 -103 -96 -238 -138 -289 -36 -44 -70 -47
-95 -10 -16 26 -16 28 24 103 161 297 139 695 -57 1020 -173 288 -424 475
-755 562 -106 28 -373 35 -486 14z m311 -276 c124 -15 194 -35 295 -84 200
-96 367 -266 460 -468 43 -94 64 -176 74 -296 26 -297 -66 -541 -284 -756
-193 -190 -424 -276 -700 -261 -243 13 -434 98 -604 267 -181 180 -271 403
-271 669 0 272 85 477 275 665 175 173 384 262 640 274 17 0 69 -4 115 -10z
m1519 -703 c38 -20 99 -90 122 -140 26 -57 28 -250 2 -278 -23 -25 -75 -23
-100 5 -18 19 -22 38 -25 125 l-4 104 -52 49 c-43 40 -52 55 -52 83 0 57 51
81 109 52z m-2860 -1462 c19 -25 21 -40 21 -202 0 -237 15 -222 -220 -222
-231 0 -214 -17 -218 219 -3 168 -2 178 18 204 l21 27 179 0 179 0 20 -26z
m2751 -171 c45 -26 64 -89 40 -134 -28 -51 15 -49 -1170 -49 -818 0 -1107 3
-1123 12 -67 35 -72 138 -8 173 22 12 206 14 1129 15 1012 0 1106 -1 1132 -17z
m-2753 -545 c22 -21 23 -26 23 -197 0 -236 15 -221 -221 -221 l-178 0 -20 26
c-19 25 -21 40 -21 194 0 154 2 169 21 194 l20 26 177 0 c167 0 177 -1 199
-22z m2444 -166 c31 -35 36 -66 17 -107 -26 -57 14 -55 -1005 -55 -1043 0
-969 -5 -1000 67 -18 44 -4 91 35 116 25 15 95 16 975 14 l949 -2 29 -33z
m-2444 -544 c22 -21 23 -26 23 -197 0 -236 15 -221 -221 -221 l-178 0 -21 27
c-20 26 -21 36 -18 204 2 131 7 180 17 192 12 15 38 17 194 17 172 0 182 -1
204 -22z m2742 -139 c64 -22 81 -110 32 -160 l-29 -29 -1115 0 -1115 0 -30 25
c-17 14 -33 39 -37 55 -8 36 17 93 48 108 32 15 2202 16 2246 1z m-2742 -571
c22 -21 23 -26 23 -198 0 -164 -1 -178 -20 -198 -13 -14 -33 -22 -53 -22 -18
-1 -97 -1 -177 0 -142 0 -145 1 -167 26 -22 24 -23 33 -23 193 0 155 2 170 21
195 l20 26 177 0 c167 0 177 -1 199 -22z m2412 -139 c64 -22 81 -110 32 -160
l-29 -29 -950 0 c-941 0 -950 0 -975 20 -31 25 -50 82 -37 115 5 12 21 32 36
44 l27 21 932 0 c656 0 941 -3 964 -11z m-2408 -578 c17 -21 19 -41 19 -197 0
-161 -2 -176 -20 -194 -24 -24 -10 -23 -210 -20 -219 2 -204 -13 -208 215 l-3
175 26 25 25 26 176 -3 c171 -3 176 -4 195 -27z m2770 -140 c40 -40 41 -106 3
-142 l-26 -24 -1114 -3 c-1236 -3 -1161 -7 -1184 63 -15 46 -5 90 27 115 25
20 39 20 1145 20 l1120 0 29 -29z"/>
<path d="M2454 5165 c-171 -173 -317 -315 -324 -315 -8 0 -87 72 -176 160
-150 149 -164 160 -199 160 -96 0 -159 -79 -131 -166 6 -19 106 -117 388 -382
71 -66 81 -72 119 -72 l43 0 372 372 c205 204 378 384 385 400 9 23 8 37 -6
74 -21 55 -62 84 -120 84 -39 0 -45 -5 -351 -315z"/>
</g>
</svg>
